<?xml version="1.0" encoding="UTF-8"?>
<svg id="Layer_1" data-name="Layer 1" xmlns="http://www.w3.org/2000/svg" viewBox="0 0 522.87 390.26">
  <defs>
    <style>
      .cls-1, .cls-2 {
        fill: #1e2937;
      }

      .cls-3 {
        fill: #fff;
      }

      .cls-2 {
        stroke: #1e2937;
        stroke-miterlimit: 10;
      }
    </style>
  </defs>
  <polygon class="cls-2" points="266.9 .5 257.11 .5 257.11 26.72 234.04 26.72 234 36.11 257.11 36.11 257.11 82.28 227.77 119.46 213.68 130.8 205.46 147.24 189.03 158.98 161.64 187.15 124.46 167.59 1.2 291.63 521.67 291.63 401.28 169.77 368.93 188.36 340.76 158.36 335.28 154.45 327.32 142.45 309.19 125.88 301.36 121.58 294.45 110.62 266.54 81.79 266.47 36.15 291.06 36.15 291.06 26.6 267.06 26.6 266.9 .5"/>
  <polygon class="cls-3" points="126.03 176.98 120.16 196.93 126.03 211.8 102.94 247.02 112.72 241.15 124.46 232.54 154.98 196.93 156.94 192.63 126.03 176.98"/>
  <polygon class="cls-3" points="174.16 217.67 196.27 192.53 196.27 174.04 206.54 158.88 205.85 156.04 190.98 167.59 189.13 176.49 186.58 186.86 174.16 217.67"/>
  <polygon class="cls-3" points="264.07 90.34 264.07 99.73 265.76 111.73 255.06 147.73 271.76 169.38 272.8 175.38 268.36 192.08 288.71 219.73 359.15 270.08 343.23 240.6 437.15 280.51 409.5 253.9 459.58 267.73 502.1 283.12 403.23 181.9 402.45 188.95 405.84 195.99 406.36 201.99 402.19 211.12 402.45 216.6 419.93 245.29 389.15 219.47 378.58 206.68 338.8 183.73 357.84 188.95 338.8 166.77 329.41 161.82 322.36 148.51 304.89 132.34 304.1 142.51 287.41 114.86 264.07 90.34"/>
  <g>
    <path class="cls-1" d="M1.85,389.22v-60.2h36.46v7.74H10.28v18.92h24.42v7.74H10.28v25.8H1.85Z"/>
    <path class="cls-1" d="M67.73,389.22v-60.2h20.3c4.01,0,7.55.79,10.62,2.37,3.07,1.58,5.47,3.76,7.22,6.54,1.75,2.78,2.62,6.01,2.62,9.67s-.93,6.82-2.79,9.63c-1.86,2.81-4.4,5-7.61,6.58-3.21,1.58-6.82,2.37-10.84,2.37h-11.09v23.05h-8.43ZM76.16,358.44h12.64c2.06,0,3.91-.47,5.55-1.42s2.95-2.24,3.96-3.87c1-1.63,1.5-3.48,1.5-5.55,0-3.21-1.12-5.82-3.35-7.83-2.24-2.01-5.13-3.01-8.69-3.01h-11.61v21.67ZM101.35,389.22l-14.28-24.6,6.71-4.47,17.11,29.07h-9.55Z"/>
    <path class="cls-1" d="M134.29,389.22l24.25-60.2h8.6l-23.82,60.2h-9.03ZM145.73,373.14v-7.57h34.66v7.57h-34.66ZM182.79,389.22l-23.82-60.2h8.6l24.25,60.2h-9.03Z"/>
    <path class="cls-1" d="M238.61,390.26c-3.21,0-6.12-.37-8.73-1.12-2.61-.74-4.87-1.76-6.79-3.05-1.92-1.29-3.51-2.74-4.77-4.34-1.26-1.6-2.15-3.3-2.67-5.07l8.17-2.67c.86,2.35,2.49,4.39,4.9,6.11,2.41,1.72,5.36,2.61,8.86,2.67,4.24,0,7.58-.84,10.02-2.54,2.44-1.69,3.65-3.94,3.65-6.75,0-2.58-1.06-4.69-3.18-6.32-2.12-1.63-4.93-2.88-8.43-3.74l-6.97-1.81c-2.75-.74-5.26-1.81-7.52-3.18-2.27-1.38-4.06-3.12-5.38-5.25-1.32-2.12-1.98-4.67-1.98-7.65,0-5.5,1.79-9.8,5.38-12.9,3.58-3.1,8.76-4.64,15.52-4.64,3.9,0,7.28.62,10.15,1.85,2.87,1.23,5.23,2.85,7.09,4.86,1.86,2.01,3.2,4.21,4,6.62l-8.17,2.75c-.98-2.58-2.64-4.66-4.99-6.23-2.35-1.58-5.25-2.37-8.69-2.37-3.61,0-6.46.86-8.56,2.58-2.09,1.72-3.14,4.07-3.14,7.05,0,2.52.82,4.46,2.45,5.8,1.63,1.35,3.83,2.37,6.58,3.05l6.97,1.72c5.62,1.38,9.96,3.66,13.03,6.84,3.07,3.18,4.6,6.67,4.6,10.45,0,3.27-.82,6.21-2.45,8.81-1.63,2.61-4.04,4.67-7.22,6.19s-7.1,2.28-11.74,2.28Z"/>
    <path class="cls-1" d="M310.16,390.26c-3.21,0-6.12-.37-8.73-1.12-2.61-.74-4.87-1.76-6.79-3.05-1.92-1.29-3.51-2.74-4.77-4.34-1.26-1.6-2.15-3.3-2.67-5.07l8.17-2.67c.86,2.35,2.49,4.39,4.9,6.11s5.36,2.61,8.86,2.67c4.24,0,7.58-.84,10.02-2.54,2.44-1.69,3.66-3.94,3.66-6.75,0-2.58-1.06-4.69-3.18-6.32-2.12-1.63-4.93-2.88-8.43-3.74l-6.97-1.81c-2.75-.74-5.26-1.81-7.53-3.18-2.27-1.38-4.06-3.12-5.38-5.25-1.32-2.12-1.98-4.67-1.98-7.65,0-5.5,1.79-9.8,5.38-12.9,3.58-3.1,8.76-4.64,15.52-4.64,3.9,0,7.28.62,10.15,1.85,2.87,1.23,5.23,2.85,7.09,4.86,1.86,2.01,3.2,4.21,4,6.62l-8.17,2.75c-.98-2.58-2.64-4.66-4.99-6.23-2.35-1.58-5.25-2.37-8.69-2.37-3.61,0-6.46.86-8.56,2.58-2.09,1.72-3.14,4.07-3.14,7.05,0,2.52.82,4.46,2.45,5.8,1.63,1.35,3.83,2.37,6.58,3.05l6.97,1.72c5.62,1.38,9.96,3.66,13.03,6.84,3.07,3.18,4.6,6.67,4.6,10.45,0,3.27-.82,6.21-2.45,8.81-1.63,2.61-4.04,4.67-7.22,6.19s-7.09,2.28-11.74,2.28Z"/>
    <path class="cls-1" d="M355.4,389.22l24.25-60.2h8.6l-23.82,60.2h-9.03ZM366.83,373.14v-7.57h34.66v7.57h-34.66ZM403.9,389.22l-23.82-60.2h8.6l24.25,60.2h-9.03Z"/>
    <path class="cls-1" d="M450.51,389.22v-52.46h-18.83v-7.74h46.18v7.74h-18.83v52.46h-8.51Z"/>
    <path class="cls-1" d="M505.47,389.22v-60.2h8.43v60.2h-8.43Z"/>
  </g>
</svg>